<svg xmlns="http://www.w3.org/2000/svg" xmlns:xlink="http://www.w3.org/1999/xlink" width="25" height="25" viewBox="0 0 25 25">
  <defs>
    <clipPath id="clip-path">
      <rect id="Rectangle_103" data-name="Rectangle 103" width="25" height="25" transform="translate(341 21)" fill="#fff"/>
    </clipPath>
  </defs>
  <g id="Group_2520" data-name="Group 2520" transform="translate(-341 -21)" clip-path="url(#clip-path)">
    <path id="Path_799" data-name="Path 799" d="M350.63,32.218a1.591,1.591,0,0,0,1.588-1.588V23.491A1.591,1.591,0,0,0,350.63,21.9h-7.139a1.591,1.591,0,0,0-1.588,1.588V30.63a1.591,1.591,0,0,0,1.588,1.588Zm0-11.218a2.487,2.487,0,0,1,2.491,2.491V30.63a2.487,2.487,0,0,1-2.491,2.491h-7.139A2.487,2.487,0,0,1,341,30.63V23.491A2.487,2.487,0,0,1,343.491,21ZM365.1,23.491V30.63a1.591,1.591,0,0,1-1.588,1.588H356.37a1.591,1.591,0,0,1-1.588-1.588V23.491A1.591,1.591,0,0,1,356.37,21.9h7.139A1.591,1.591,0,0,1,365.1,23.491Zm.9,0A2.487,2.487,0,0,0,363.509,21H356.37a2.487,2.487,0,0,0-2.491,2.491V30.63a2.487,2.487,0,0,0,2.491,2.491h7.139A2.487,2.487,0,0,0,366,30.63Zm-.9,12.879v7.139a1.591,1.591,0,0,1-1.588,1.588H356.37a1.591,1.591,0,0,1-1.588-1.588V36.37a1.591,1.591,0,0,1,1.588-1.588h7.139A1.591,1.591,0,0,1,365.1,36.37Zm.9,0a2.487,2.487,0,0,0-2.491-2.491H356.37a2.487,2.487,0,0,0-2.491,2.491v7.139A2.487,2.487,0,0,0,356.37,46h7.139A2.487,2.487,0,0,0,366,43.509Zm-13.782,7.139A1.591,1.591,0,0,1,350.63,45.1h-7.139a1.591,1.591,0,0,1-1.588-1.588V36.37a1.591,1.591,0,0,1,1.588-1.588h7.139a1.591,1.591,0,0,1,1.588,1.588Zm.9-7.139a2.487,2.487,0,0,0-2.491-2.491h-7.139A2.487,2.487,0,0,0,341,36.37v7.139A2.487,2.487,0,0,0,343.491,46h7.139a2.487,2.487,0,0,0,2.491-2.491Z" fill="#fff" fill-rule="evenodd"/>
  </g>
</svg>
