<svg xmlns="http://www.w3.org/2000/svg" width="25" height="14.391" viewBox="0 0 25 14.391">
  <g id="Group_2524" data-name="Group 2524" transform="translate(0 -1)">
    <path id="Path_804" data-name="Path 804" d="M5.756,8.812a.412.412,0,0,1-.411.411H4.523a.411.411,0,1,1,0-.822h.822A.412.412,0,0,1,5.756,8.812ZM18.5,12.923a.412.412,0,0,1-.411.411H.411a.411.411,0,1,1,0-.822h1.6l-.8-.576A2.875,2.875,0,0,1,0,9.593V7.537A1.193,1.193,0,0,1,1.192,6.345h.041V4.7a1.272,1.272,0,0,1,.822-1.172v-1.3A1.237,1.237,0,0,1,3.289,1H6.784A1.237,1.237,0,0,1,8.017,2.233V3.467c.739,0,.617.822.617.822V8.4h8.675A1.193,1.193,0,0,1,18.5,9.593a2.875,2.875,0,0,1-1.213,2.343l-.8.576h1.6a.412.412,0,0,1,.411.411ZM2.878,3.467H7.2V2.233a.412.412,0,0,0-.411-.411H3.289a.412.412,0,0,0-.411.411V3.467ZM2.056,6.345H6.784a.424.424,0,0,1,.349.206l.123.206.555.925V4.289H2.467a.412.412,0,0,0-.411.411V6.345Zm13.033,6.167,1.747-1.233A2.075,2.075,0,0,0,17.7,9.613a.368.368,0,0,0-.37-.37H8.017a.424.424,0,0,1-.349-.206l-1.11-1.85H1.213a.368.368,0,0,0-.37.37V9.613a2.046,2.046,0,0,0,.863,1.665l1.747,1.233Zm-2.344,2.056H5.756a.411.411,0,1,0,0,.822h6.989a.411.411,0,1,0,0-.822ZM7.812,10.456a.411.411,0,1,0,.411.411A.412.412,0,0,0,7.812,10.456Zm2.056,0a.411.411,0,1,0,.411.411A.412.412,0,0,0,9.867,10.456Zm2.056,0a.411.411,0,1,0,.411.411A.412.412,0,0,0,11.923,10.456Zm2.056,0a.411.411,0,1,0,.411.411A.412.412,0,0,0,13.979,10.456Zm.822,4.112a.411.411,0,1,0,.411.411A.412.412,0,0,0,14.8,14.568Zm-11.1,0a.411.411,0,1,0,.411.411A.412.412,0,0,0,3.7,14.568ZM2.467,8.4a.411.411,0,1,0,.411.411A.412.412,0,0,0,2.467,8.4Z" fill="#fff" fill-rule="evenodd"/>
    <path id="Path_805" data-name="Path 805" d="M10.449,6.324a.411.411,0,1,0-.411.712l2.23,1.288c.337.08.737.007.588-.61Zm8.424,5.813,5.91,3.412a.411.411,0,1,0,.411-.712l-5.851-3.378C18.8,11.454,18.742,11.765,18.873,12.137Z" transform="translate(-0.4 -0.214)" fill="#fff" fill-rule="evenodd"/>
  </g>
</svg>
