<svg xmlns="http://www.w3.org/2000/svg" width="169.551" height="164.644" viewBox="0 0 169.551 164.644">
  <g id="Layer_1" transform="translate(-582.53 -471.04)">
    <g id="Group_2517" data-name="Group 2517" transform="translate(582.53 471.04)">
      <g id="Group_2515" data-name="Group 2515" transform="translate(16.89 0)">
        <path id="Path_766" data-name="Path 766" d="M980.15,672.907l4.83,5.871,4.829-5.871a24.195,24.195,0,0,0-9.659,0Z" transform="translate(-930.514 -638.727)" fill="#00b2ff" fill-rule="evenodd"/>
        <path id="Path_767" data-name="Path 767" d="M919.13,586.185l7.265,8.832a28.282,28.282,0,0,1,15.546,0l7.265-8.832a39.13,39.13,0,0,0-30.075,0Z" transform="translate(-879.704 -564.418)" fill="#00b2ff" fill-rule="evenodd"/>
        <path id="Path_768" data-name="Path 768" d="M892.257,489.437l9.23-11.221a54.529,54.529,0,0,0-54.078,0l9.229,11.221a43.445,43.445,0,0,1,35.618,0Z" transform="translate(-819.983 -471.04)" fill="#00b2ff" fill-rule="evenodd"/>
        <path id="Path_769" data-name="Path 769" d="M786.358,651.957a28.324,28.324,0,0,1,14.452-24.675l-6.912-8.4a39.052,39.052,0,0,0,18.67,72.07V680.182A28.34,28.34,0,0,1,786.358,651.957Z" transform="translate(-760.196 -594.145)" fill="#00b2ff" fill-rule="evenodd"/>
        <path id="Path_770" data-name="Path 770" d="M707.375,622.915a43.236,43.236,0,0,1,0-61.141,43.638,43.638,0,0,1,7.127-5.769l-7.167-8.715a54.466,54.466,0,0,0,28.518,99.475V635.527A42.923,42.923,0,0,1,707.375,622.915Z" transform="translate(-683.48 -534.533)" fill="#00b2ff" fill-rule="evenodd"/>
        <path id="Path_771" data-name="Path 771" d="M1021.52,946.252V957.02a38.88,38.88,0,0,0,22.993-9.068l-5.473-9.542A28.2,28.2,0,0,1,1021.52,946.252Z" transform="translate(-964.963 -860.215)" fill="#00b2ff" fill-rule="evenodd"/>
        <path id="Path_772" data-name="Path 772" d="M1117,651.957a39.021,39.021,0,0,0-18.289-33.077l-6.911,8.4a28.3,28.3,0,0,1,14.23,28.223l10.81-.027C1116.943,654.318,1117,653.145,1117,651.957Z" transform="translate(-1023.484 -594.145)" fill="#00b2ff" fill-rule="evenodd"/>
        <path id="Path_773" data-name="Path 773" d="M1180.037,595.858c.074-1.159.115-2.327.115-3.505A54.405,54.405,0,0,0,1156.3,547.3l-7.168,8.715a43.55,43.55,0,0,1,7.127,5.769,42.946,42.946,0,0,1,12.662,30.571q0,1.767-.142,3.51l6.89-.017Z" transform="translate(-1071.223 -534.541)" fill="#00b2ff" fill-rule="evenodd"/>
        <path id="Path_774" data-name="Path 774" d="M1046.626,1017.46a42.838,42.838,0,0,1-25.106,9.573v11.238a54.205,54.205,0,0,0,30.781-11l-3.716-6.4Z" transform="translate(-964.963 -926.039)" fill="#00b2ff" fill-rule="evenodd"/>
        <path id="Path_775" data-name="Path 775" d="M912.837,713.671a24.155,24.155,0,0,0-12.709-24.951l-11.149,13.557L877.83,688.72a24.123,24.123,0,0,0,9.058,45.421V714.556a4.91,4.91,0,1,1,4.183,0v19.585a24.053,24.053,0,0,0,15.371-7.393l-7.482-13.042Z" transform="translate(-834.513 -652.3)" fill="#00b2ff" fill-rule="evenodd"/>
        <path id="path947_2_" d="M1175.886,862.542l-33.058,18.764,1,36.764-16.465-28.344-15.593-27.184,32.777-.082Z" transform="translate(-1040.113 -796.972)" fill="#00b2ff" fill-rule="evenodd"/>
      </g>
      <g id="Group_2516" data-name="Group 2516" transform="translate(0 138.067)">
        <path id="Path_776" data-name="Path 776" d="M582.53,1298.47H590l7.281,17.964,7.208-17.964h7.43v25.948H605.6v-15.561l-5.8,15.561h-5.1l-5.841-15.6v15.6H582.53Z" transform="translate(-582.53 -1298.1)" fill="#00b2ff"/>
        <path id="Path_777" data-name="Path 777" d="M793.044,1319.844H783.36l-1.553,4.584H775.19l9.389-25.948H791.9l9.389,25.948H794.6Zm-4.844-14.38-3.179,9.5h6.395Z" transform="translate(-742.956 -1298.109)" fill="#00b2ff"/>
        <path id="Path_778" data-name="Path 778" d="M958.771,1298.47c6.358,0,9.537,3.659,9.537,8.17a7.552,7.552,0,0,1-5.767,7.5l5.988,10.276h-7.134l-5.4-9.8h-1.516v9.8H948.16v-25.948h10.611Zm-.37,5.248h-3.918v6.431H958.4c2.366,0,3.475-1.22,3.475-3.252C961.876,1304.975,960.767,1303.718,958.4,1303.718Z" transform="translate(-886.987 -1298.1)" fill="#00b2ff"/>
        <path id="Path_779" data-name="Path 779" d="M1098.541,1298.47v21.069h8.28v4.879h-14.6V1298.47Z" transform="translate(-1006.944 -1298.1)" fill="#00b2ff"/>
        <path id="Path_780" data-name="Path 780" d="M1213.494,1303.524h-9.573v5.249h8.464v4.879h-8.464v5.692h9.573v5.064H1197.6V1298.46h15.894Z" transform="translate(-1094.693 -1298.092)" fill="#00b2ff"/>
        <path id="Path_781" data-name="Path 781" d="M1340.334,1298.47v25.948h-6.321l-10.572-16v16h-6.321V1298.47h6.321l10.572,16.08v-16.08Z" transform="translate(-1194.217 -1298.1)" fill="#00b2ff"/>
        <path id="Path_782" data-name="Path 782" d="M1488.969,1322.837c-5.581,0-9.943-2.772-10.129-8.021h6.727a2.975,2.975,0,0,0,3.216,2.956c1.849,0,3.032-.924,3.032-2.439,0-4.805-12.975-2.219-12.9-11.422,0-4.916,4.029-7.651,9.463-7.651,5.655,0,9.463,2.809,9.722,7.763h-6.838a2.809,2.809,0,0,0-2.995-2.7,2.3,2.3,0,0,0-2.662,2.366c0,4.509,12.826,2.476,12.826,11.163C1498.432,1319.215,1495.031,1322.837,1488.969,1322.837Z" transform="translate(-1328.879 -1296.26)" fill="#00b2ff"/>
      </g>
    </g>
  </g>
</svg>
